<svg width="50" height="50" viewBox="0 0 50 50" fill="none" xmlns="http://www.w3.org/2000/svg">
<path d="M36.4407 0C43.9293 0 50 6.07072 50 13.5593V36.4407C50 43.9293 43.9293 50 36.4407 50H13.5593C6.07072 50 1.36504e-08 43.9293 0 36.4407V13.5593C0 6.07072 6.07072 1.36495e-08 13.5593 0H36.4407ZM25 7.62712C15.4052 7.62712 7.62712 15.4052 7.62712 25C7.62712 34.5948 15.4052 42.3729 25 42.3729C34.5948 42.3729 42.3729 34.5948 42.3729 25C42.3729 15.4052 34.5948 7.62712 25 7.62712ZM25 12.7119C31.7866 12.7119 37.2881 18.2134 37.2881 25C37.2881 31.7866 31.7866 37.2881 25 37.2881C18.2134 37.2881 12.7119 31.7866 12.7119 25C12.7119 18.2134 18.2134 12.7119 25 12.7119ZM25 17.7966C21.0217 17.7966 17.7966 21.0217 17.7966 25C17.7966 28.9783 21.0217 32.2034 25 32.2034C28.9783 32.2034 32.2034 28.9783 32.2034 25C32.2034 21.0217 28.9783 17.7966 25 17.7966Z" fill="white"/>
</svg>
